<svg width="20" height="13" viewBox="0 0 20 13" fill="none" xmlns="http://www.w3.org/2000/svg">
<path d="M16.8736 6.42953C16.8736 6.78103 16.6894 6.83803 16.2296 6.83803C15.7437 6.83803 15.654 6.75886 15.6018 6.39945C15.5056 5.48745 14.8714 4.7132 13.8075 4.62611C13.4668 4.5992 13.3852 4.4757 13.3852 4.0672C13.3852 3.6872 13.4456 3.5067 13.7488 3.5067C15.5953 3.51461 16.8736 4.95703 16.8736 6.42795V6.42953ZM19.5638 6.42953C19.5638 3.69353 17.6578 0.800781 13.254 0.800781H4.50006C4.32234 0.800781 4.21147 0.887865 4.21147 1.0462C4.21147 1.13249 4.27832 1.21166 4.33864 1.25203C4.65495 1.49745 5.12942 1.76978 5.74899 2.0722C6.3547 2.3667 6.82754 2.55986 7.30037 2.7467C7.50091 2.82586 7.57429 2.91136 7.57429 3.01903C7.57429 3.16945 7.46341 3.26286 7.24819 3.26286H0.303265C0.0961969 3.26286 0 3.3927 0 3.52095C0 3.62861 0.03587 3.72203 0.132067 3.81545C0.694574 4.3902 1.59622 5.07895 2.90384 5.87695C4.09897 6.59736 5.33322 7.25445 6.59927 7.84978C6.79167 7.93686 6.85036 8.03661 6.85036 8.14428C6.84384 8.2662 6.74764 8.36595 6.52427 8.36595H3.34244C3.16635 8.36595 3.062 8.46095 3.062 8.60345C3.062 8.68261 3.12722 8.78236 3.21689 8.86153C3.94081 9.5012 5.10088 10.1979 6.64655 10.8359C8.70908 11.6909 10.7993 12.1984 13.1521 12.1984C17.6073 12.1984 19.5655 8.96286 19.5655 6.42795L19.5638 6.42953ZM13.7488 10.4702C11.4711 10.4702 9.56507 8.66836 9.56507 6.42161C9.56507 4.2097 11.4646 2.43161 13.7488 2.43161C16.0828 2.43161 17.9155 4.20495 17.9155 6.42161C17.9185 6.9539 17.8128 7.48149 17.6045 7.97386C17.3962 8.46623 17.0894 8.9136 16.702 9.2901C16.3145 9.6666 15.854 9.96476 15.3471 10.1673C14.8402 10.3699 14.297 10.4728 13.7488 10.4702Z" fill="black"/>
</svg>
