<svg width="13" height="13" viewBox="0 0 13 13" fill="none" xmlns="http://www.w3.org/2000/svg">
<path d="M6.25 0.401398C5.42924 0.401398 4.61651 0.563059 3.85823 0.877151C3.09994 1.19124 2.41095 1.65161 1.83058 2.23198C0.65848 3.40408 0 4.99379 0 6.6514C0 9.4139 1.79375 11.7576 4.275 12.5889C4.5875 12.6389 4.6875 12.4451 4.6875 12.2764V11.2201C2.95625 11.5951 2.5875 10.3826 2.5875 10.3826C2.3 9.65765 1.89375 9.4639 1.89375 9.4639C1.325 9.0764 1.9375 9.0889 1.9375 9.0889C2.5625 9.13265 2.89375 9.73265 2.89375 9.73265C3.4375 10.6826 4.35625 10.4014 4.7125 10.2514C4.76875 9.84515 4.93125 9.57015 5.10625 9.4139C3.71875 9.25765 2.2625 8.72015 2.2625 6.3389C2.2625 5.64515 2.5 5.0889 2.90625 4.64515C2.84375 4.4889 2.625 3.8389 2.96875 2.99515C2.96875 2.99515 3.49375 2.8264 4.6875 3.63265C5.18125 3.49515 5.71875 3.4264 6.25 3.4264C6.78125 3.4264 7.31875 3.49515 7.8125 3.63265C9.00625 2.8264 9.53125 2.99515 9.53125 2.99515C9.875 3.8389 9.65625 4.4889 9.59375 4.64515C10 5.0889 10.2375 5.64515 10.2375 6.3389C10.2375 8.7264 8.775 9.2514 7.38125 9.40765C7.60625 9.6014 7.8125 9.98265 7.8125 10.5639V12.2764C7.8125 12.4451 7.9125 12.6451 8.23125 12.5889C10.7125 11.7514 12.5 9.4139 12.5 6.6514C12.5 5.83064 12.3383 5.01791 12.0242 4.25963C11.7102 3.50134 11.2498 2.81235 10.6694 2.23198C10.0891 1.65161 9.40006 1.19124 8.64177 0.877151C7.88349 0.563059 7.07076 0.401398 6.25 0.401398Z" fill="black"/>
</svg>
