<svg width="43" height="42" viewBox="0 0 43 42" fill="none" xmlns="http://www.w3.org/2000/svg">
<path d="M21.8587 0.578125C10.1834 0.578125 0.71875 11.6495 0.71875 25.3084C0.71875 38.966 10.1834 41.45 21.8587 41.45C33.5339 41.45 43 38.966 43 25.3084C43 11.6495 33.5339 0.578125 21.8587 0.578125ZM21.8594 33.8056C13.11 33.8056 6.0187 26.6072 6.0187 17.7274C6.0187 8.84763 13.11 1.64925 21.8594 1.64925C30.6074 1.64925 37.7 8.84763 37.7 17.7274C37.7 26.6072 30.6074 33.8056 21.8594 33.8056Z" fill="#7C0000"/>
<path d="M15.8835 29.8954C16.1381 29.4546 15.9924 28.8938 15.558 28.6429C15.1236 28.3919 14.565 28.5459 14.3104 28.9867C14.0558 29.4275 14.2015 29.9882 14.6359 30.2391C15.0703 30.4901 15.6289 30.3362 15.8835 29.8954Z" fill="#7C0000"/>
<path d="M27.8336 5.55971C27.5791 6.00059 27.7251 6.5613 28.1596 6.81208C28.594 7.06286 29.1526 6.90874 29.407 6.46786C29.6615 6.02697 29.5156 5.46626 29.0811 5.21548C28.6466 4.9647 28.0881 5.11882 27.8336 5.55971Z" fill="#7C0000"/>
<path d="M10.9457 24.0298C10.6948 23.5949 10.1342 23.4484 9.69362 23.7026C9.25301 23.9568 9.0992 24.5154 9.35007 24.9503C9.60095 25.3851 10.1615 25.5316 10.6021 25.2774C11.0427 25.0233 11.1965 24.4647 10.9457 24.0298Z" fill="#7C0000"/>
<path d="M33.1186 10.1798C32.6778 10.4345 32.524 10.9931 32.775 11.4275C33.0259 11.8618 33.5867 12.0075 34.0275 11.7528C34.4683 11.4981 34.6221 10.9395 34.3711 10.5051C34.1201 10.0708 33.5593 9.92513 33.1186 10.1798Z" fill="#7C0000"/>
<path d="M8.33506 18.6357C8.84412 18.6357 9.25679 18.229 9.25679 17.7273C9.25679 17.2256 8.84412 16.819 8.33506 16.819C7.826 16.819 7.41333 17.2256 7.41333 17.7273C7.41333 18.229 7.826 18.6357 8.33506 18.6357Z" fill="#7C0000"/>
<path d="M35.3831 18.6357C35.8926 18.6357 36.3056 18.229 36.3056 17.7273C36.3056 17.2256 35.8926 16.819 35.3831 16.819C34.8737 16.819 34.4607 17.2256 34.4607 17.7273C34.4607 18.229 34.8737 18.6357 35.3831 18.6357Z" fill="#7C0000"/>
<path d="M9.34682 10.5018C9.09594 10.9363 9.25048 11.4951 9.69198 11.7501C10.1335 12.0051 10.6948 11.8596 10.9456 11.4251C11.1965 10.9907 11.042 10.4319 10.6005 10.1769C10.159 9.92193 9.5977 10.0674 9.34682 10.5018Z" fill="#7C0000"/>
<path d="M34.3698 24.951C34.6208 24.5167 34.467 23.9581 34.0262 23.7034C33.5854 23.4487 33.0247 23.5943 32.7737 24.0287C32.5227 24.4631 32.6765 25.0217 33.1173 25.2763C33.5581 25.531 34.1188 25.3854 34.3698 24.951Z" fill="#7C0000"/>
<path d="M14.3099 6.46954C14.5646 6.91028 15.1232 7.06407 15.5575 6.81305C15.9919 6.56202 16.1375 6.00123 15.8827 5.56048C15.628 5.11974 15.0694 4.96595 14.6351 5.21698C14.2007 5.46801 14.0551 6.0288 14.3099 6.46954Z" fill="#7C0000"/>
<path d="M28.16 28.6402C27.9505 28.7632 27.7985 28.9643 27.7373 29.1994C27.6761 29.4345 27.7108 29.6843 27.8338 29.8938C27.8931 29.9984 27.9725 30.0902 28.0674 30.164C28.1623 30.2378 28.2708 30.2922 28.3867 30.324C28.5026 30.3558 28.6237 30.3644 28.743 30.3494C28.8622 30.3343 28.9774 30.2959 29.0818 30.2363C29.5151 29.9868 29.6624 29.4259 29.4066 28.9855C29.2868 28.7747 29.0884 28.6199 28.8547 28.5552C28.621 28.4905 28.3712 28.521 28.16 28.6402Z" fill="#7C0000"/>
<path d="M21.8593 5.12612C22.3609 5.12612 22.7676 4.71313 22.7676 4.20369C22.7676 3.69424 22.3609 3.28125 21.8593 3.28125C21.3576 3.28125 20.9509 3.69424 20.9509 4.20369C20.9509 4.71313 21.3576 5.12612 21.8593 5.12612Z" fill="#7C0000"/>
<path d="M21.8593 32.1734C22.3609 32.1734 22.7676 31.7604 22.7676 31.2509C22.7676 30.7415 22.3609 30.3285 21.8593 30.3285C21.3576 30.3285 20.9509 30.7415 20.9509 31.2509C20.9509 31.7604 21.3576 32.1734 21.8593 32.1734Z" fill="#7C0000"/>
<path d="M22.9051 6.50537C28.0634 7.02895 32.0893 11.386 32.0893 16.6825C32.0893 22.3327 27.5088 26.9131 21.8579 26.9131C16.2071 26.9131 11.6273 22.3327 11.6273 16.6825C11.6273 11.3853 15.6525 7.02895 20.8108 6.50537C15.0767 7.03389 10.5844 11.8539 10.5844 17.7275C10.5844 23.9541 15.6313 29.0025 21.8586 29.0025C28.086 29.0025 33.1343 23.9541 33.1343 17.7275C33.1343 11.8539 28.6413 7.03389 22.9051 6.50537Z" fill="#7C0000"/>
<path d="M21.8594 6.45239C19.9419 6.45239 18.3881 16.5555 18.3881 21.8054C18.3881 27.0539 25.3292 27.0539 25.3292 21.8054C25.3292 16.5555 23.7761 6.45239 21.8594 6.45239Z" fill="#7C0000"/>
</svg>
