<svg width="10" height="7" viewBox="0 0 10 7" fill="none" xmlns="http://www.w3.org/2000/svg">
<path d="M9.31794 1.05919C9.43179 0.941318 9.49479 0.783442 9.49337 0.619569C9.49194 0.455696 9.42621 0.298938 9.31033 0.183058C9.19445 0.0671781 9.03769 0.00144764 8.87382 2.36266e-05C8.70995 -0.00140039 8.55207 0.0615961 8.4342 0.175445L3.8717 4.73795L1.8092 2.67544C1.69132 2.5616 1.53344 2.4986 1.36957 2.50002C1.2057 2.50145 1.04894 2.56718 0.933058 2.68306C0.817178 2.79894 0.751448 2.9557 0.750024 3.11957C0.7486 3.28344 0.811596 3.44132 0.925445 3.5592L3.42544 6.0592C3.54265 6.17636 3.70159 6.24219 3.86732 6.24219C4.03305 6.24219 4.19199 6.17636 4.3092 6.0592L9.30919 1.05919H9.31794Z" fill="black"/>
</svg>
