<svg width="13" height="11" viewBox="0 0 13 11" fill="none" xmlns="http://www.w3.org/2000/svg">
<g clip-path="url(#clip0_30_881)">
<path d="M5.5 -1L7.5 -1C7.5 -1.26522 7.39464 -1.51957 7.20711 -1.70711C7.01957 -1.89464 6.76522 -2 6.5 -2C6.23478 -2 5.98043 -1.89464 5.79289 -1.70711C5.60536 -1.51957 5.5 -1.26522 5.5 -1ZM4.5 -1C4.5 -1.53043 4.71071 -2.03914 5.08579 -2.41421C5.46086 -2.78929 5.96957 -3 6.5 -3C7.03043 -3 7.53914 -2.78929 7.91421 -2.41421C8.28929 -2.03914 8.5 -1.53043 8.5 -1L12.5 -1C12.6326 -1 12.7598 -0.947321 12.8536 -0.853553C12.9473 -0.759785 13 -0.632608 13 -0.5C13 -0.367392 12.9473 -0.240215 12.8536 -0.146446C12.7598 -0.0526783 12.6326 2.38419e-07 12.5 2.38419e-07H11.936L10.731 8.838C10.6493 9.43693 10.3533 9.98597 9.8979 10.3835C9.44249 10.781 8.85848 11 8.254 11H4.746C4.14152 11 3.55751 10.781 3.1021 10.3835C2.64669 9.98597 2.35073 9.43693 2.269 8.838L1.064 2.38419e-07L0.5 2.38419e-07C0.367392 2.38419e-07 0.240215 -0.0526783 0.146447 -0.146446C0.0526784 -0.240215 0 -0.367392 0 -0.5C0 -0.632608 0.0526784 -0.759785 0.146447 -0.853553C0.240215 -0.947321 0.367392 -1 0.5 -1L4.5 -1ZM5.5 2.5C5.5 2.36739 5.44732 2.24022 5.35355 2.14645C5.25979 2.05268 5.13261 2 5 2C4.86739 2 4.74021 2.05268 4.64645 2.14645C4.55268 2.24022 4.5 2.36739 4.5 2.5L4.5 7.5C4.5 7.63261 4.55268 7.75979 4.64645 7.85355C4.74021 7.94732 4.86739 8 5 8C5.13261 8 5.25979 7.94732 5.35355 7.85355C5.44732 7.75979 5.5 7.63261 5.5 7.5L5.5 2.5ZM8 2C8.13261 2 8.25979 2.05268 8.35355 2.14645C8.44732 2.24022 8.5 2.36739 8.5 2.5V7.5C8.5 7.63261 8.44732 7.75979 8.35355 7.85355C8.25979 7.94732 8.13261 8 8 8C7.86739 8 7.74021 7.94732 7.64645 7.85355C7.55268 7.75979 7.5 7.63261 7.5 7.5L7.5 2.5C7.5 2.36739 7.55268 2.24022 7.64645 2.14645C7.74021 2.05268 7.86739 2 8 2ZM3.26 8.703C3.30908 9.06229 3.48664 9.39164 3.75984 9.63009C4.03304 9.86854 4.38337 9.99995 4.746 10H8.254C8.6168 10.0002 8.96737 9.86889 9.24078 9.63042C9.51419 9.39194 9.6919 9.06246 9.741 8.703L10.927 2.38419e-07L2.073 2.38419e-07L3.26 8.703Z" fill="#C32C2C"/>
</g>
<defs>
<clipPath id="clip0_30_881">
<rect width="13" height="11" fill="white" transform="matrix(-1 0 0 -1 13 11)"/>
</clipPath>
</defs>
</svg>
