<svg width="14" height="4" viewBox="0 0 14 4" fill="none" xmlns="http://www.w3.org/2000/svg">
<g clip-path="url(#clip0_30_879)">
<path d="M5.66821 2.586H7.66821C7.66821 2.32078 7.56286 2.06643 7.37532 1.87889C7.18778 1.69136 6.93343 1.586 6.66821 1.586C6.403 1.586 6.14864 1.69136 5.96111 1.87889C5.77357 2.06643 5.66821 2.32078 5.66821 2.586ZM4.66821 2.586C4.66821 2.05557 4.87893 1.54686 5.254 1.17178C5.62907 0.796712 6.13778 0.585999 6.66821 0.585999C7.19865 0.585999 7.70735 0.796712 8.08243 1.17178C8.4575 1.54686 8.66821 2.05557 8.66821 2.586H12.6682C12.8008 2.586 12.928 2.63868 13.0218 2.73245C13.1155 2.82621 13.1682 2.95339 13.1682 3.086C13.1682 3.21861 13.1155 3.34578 13.0218 3.43955C12.928 3.53332 12.8008 3.586 12.6682 3.586H12.1042L10.8992 12.424C10.8175 13.0229 10.5215 13.572 10.0661 13.9695C9.6107 14.367 9.0267 14.586 8.42221 14.586H4.91421C4.30973 14.586 3.72572 14.367 3.27031 13.9695C2.8149 13.572 2.51894 13.0229 2.43721 12.424L1.23221 3.586H0.668213C0.535605 3.586 0.408428 3.53332 0.314659 3.43955C0.220891 3.34578 0.168213 3.21861 0.168213 3.086C0.168213 2.95339 0.220891 2.82621 0.314659 2.73245C0.408428 2.63868 0.535605 2.586 0.668213 2.586H4.66821ZM5.66821 6.086C5.66821 5.95339 5.61553 5.82621 5.52177 5.73245C5.428 5.63868 5.30082 5.586 5.16821 5.586C5.0356 5.586 4.90843 5.63868 4.81466 5.73245C4.72089 5.82621 4.66821 5.95339 4.66821 6.086V11.086C4.66821 11.2186 4.72089 11.3458 4.81466 11.4396C4.90843 11.5333 5.0356 11.586 5.16821 11.586C5.30082 11.586 5.428 11.5333 5.52177 11.4396C5.61553 11.3458 5.66821 11.2186 5.66821 11.086V6.086ZM8.16821 5.586C8.30082 5.586 8.428 5.63868 8.52177 5.73245C8.61553 5.82621 8.66821 5.95339 8.66821 6.086V11.086C8.66821 11.2186 8.61553 11.3458 8.52177 11.4396C8.428 11.5333 8.30082 11.586 8.16821 11.586C8.0356 11.586 7.90843 11.5333 7.81466 11.4396C7.72089 11.3458 7.66821 11.2186 7.66821 11.086V6.086C7.66821 5.95339 7.72089 5.82621 7.81466 5.73245C7.90843 5.63868 8.0356 5.586 8.16821 5.586ZM3.42821 12.289C3.47729 12.6483 3.65486 12.9776 3.92806 13.2161C4.20126 13.4545 4.55159 13.586 4.91421 13.586H8.42221C8.78501 13.5862 9.13558 13.4549 9.40899 13.2164C9.6824 12.9779 9.86011 12.6485 9.90921 12.289L11.0952 3.586H2.24121L3.42821 12.289Z" fill="#C32C2C"/>
</g>
<defs>
<clipPath id="clip0_30_879">
<rect width="13" height="3" fill="white" transform="translate(0.168213 0.585999)"/>
</clipPath>
</defs>
</svg>
