<svg width="19" height="19" viewBox="0 0 19 19" fill="none" xmlns="http://www.w3.org/2000/svg">
<path d="M13.0625 5.49219C12.9017 5.49219 12.7625 5.43343 12.645 5.31592C12.5275 5.1984 12.4688 5.05924 12.4688 4.89844C12.4688 4.58301 12.5275 4.27995 12.645 3.98926C12.7625 3.69857 12.9357 3.44189 13.1646 3.21924L13.8975 2.47705C14.1325 2.24202 14.25 1.96061 14.25 1.63281C14.25 1.47201 14.3088 1.33285 14.4263 1.21533C14.5438 1.09782 14.6829 1.03906 14.8438 1.03906C15.0046 1.03906 15.1437 1.09782 15.2612 1.21533C15.3787 1.33285 15.4375 1.47201 15.4375 1.63281C15.4375 1.94824 15.3787 2.2513 15.2612 2.54199C15.1437 2.83268 14.9705 3.08936 14.7417 3.31201L14.0088 4.0542C13.7738 4.28923 13.6562 4.57064 13.6562 4.89844C13.6562 5.05924 13.5975 5.1984 13.48 5.31592C13.3625 5.43343 13.2233 5.49219 13.0625 5.49219ZM9.5 5.49219C9.33919 5.49219 9.20003 5.43343 9.08252 5.31592C8.96501 5.1984 8.90625 5.05924 8.90625 4.89844C8.90625 4.58301 8.96501 4.27995 9.08252 3.98926C9.20003 3.69857 9.37321 3.44189 9.60205 3.21924L10.335 2.47705C10.57 2.24202 10.6875 1.96061 10.6875 1.63281C10.6875 1.47201 10.7463 1.33285 10.8638 1.21533C10.9813 1.09782 11.1204 1.03906 11.2812 1.03906C11.4421 1.03906 11.5812 1.09782 11.6987 1.21533C11.8162 1.33285 11.875 1.47201 11.875 1.63281C11.875 1.94824 11.8162 2.2513 11.6987 2.54199C11.5812 2.83268 11.408 3.08936 11.1792 3.31201L10.4463 4.0542C10.2113 4.28923 10.0938 4.57064 10.0938 4.89844C10.0938 5.05924 10.035 5.1984 9.91748 5.31592C9.79997 5.43343 9.66081 5.49219 9.5 5.49219ZM17.2188 7.125C17.4661 7.125 17.6981 7.17139 17.9146 7.26416C18.131 7.35693 18.3197 7.48372 18.4805 7.64453C18.6413 7.80534 18.7681 7.99398 18.8608 8.21045C18.9536 8.42692 19 8.65885 19 8.90625V12.4688C19 12.7161 18.9536 12.9481 18.8608 13.1646C18.7681 13.381 18.6413 13.5697 18.4805 13.7305C18.3197 13.8913 18.131 14.0181 17.9146 14.1108C17.6981 14.2036 17.4661 14.25 17.2188 14.25H16.6899C16.6776 14.2933 16.6683 14.3335 16.6621 14.3706C16.6559 14.4077 16.6436 14.4448 16.625 14.4819V14.8438C16.625 15.252 16.5477 15.6354 16.3931 15.9941C16.2384 16.3529 16.0251 16.6683 15.7529 16.9404C15.4808 17.2126 15.1654 17.4259 14.8066 17.5806C14.4479 17.7352 14.0645 17.8125 13.6562 17.8125H10.0937C9.61133 17.8125 9.16602 17.7043 8.75781 17.4878C8.34961 17.2713 8.00944 16.9837 7.7373 16.625H3.09863C2.69043 16.625 2.30697 16.5477 1.94824 16.3931C1.58952 16.2384 1.27409 16.0282 1.00195 15.7622C0.729818 15.4963 0.516439 15.1808 0.361816 14.8159C0.207194 14.451 0.129883 14.0645 0.129883 13.6562L0.129883 13.0625H2.50488C2.50488 12.5739 2.59766 12.1131 2.7832 11.6802C2.96875 11.2472 3.22542 10.87 3.55322 10.5483C3.88102 10.2267 4.2583 9.97005 4.68506 9.77832C5.11182 9.58659 5.57259 9.49382 6.06738 9.5C6.25293 9.5 6.43229 9.51546 6.60547 9.54639C6.77865 9.57731 6.95182 9.62061 7.125 9.67627L7.125 5.9375L16.625 5.9375V7.125H17.2188ZM6.06738 10.6875C5.73958 10.6875 5.43343 10.7493 5.14893 10.873C4.86442 10.9967 4.61084 11.1668 4.38818 11.3833C4.16553 11.5998 3.99544 11.8503 3.87793 12.1348C3.76042 12.4193 3.69857 12.7285 3.69238 13.0625H7.125V10.9473C6.96419 10.8669 6.7972 10.805 6.62402 10.7617C6.45085 10.7184 6.2653 10.6937 6.06738 10.6875ZM3.09863 15.4375H7.18994C7.14665 15.2581 7.125 15.0602 7.125 14.8438V14.25H1.41943C1.48128 14.4232 1.56787 14.5809 1.6792 14.7231C1.79053 14.8654 1.91732 14.9922 2.05957 15.1035C2.20182 15.2148 2.36263 15.2952 2.54199 15.3447C2.72135 15.3942 2.9069 15.4251 3.09863 15.4375ZM7.39404 16.0591V16.0684L7.40332 16.0869V16.0776L7.39404 16.0591ZM15.4375 14.8438V7.125H8.3125V14.8438C8.3125 15.0911 8.35889 15.3231 8.45166 15.5396C8.54443 15.756 8.67122 15.9447 8.83203 16.1055C8.99284 16.2663 9.18148 16.3931 9.39795 16.4858C9.61442 16.5786 9.84635 16.625 10.0937 16.625H13.6562C13.9036 16.625 14.1356 16.5786 14.3521 16.4858C14.5685 16.3931 14.7572 16.2663 14.918 16.1055C15.0788 15.9447 15.2056 15.756 15.2983 15.5396C15.3911 15.3231 15.4375 15.0911 15.4375 14.8438ZM17.8125 12.4688V8.90625C17.8125 8.74544 17.7537 8.60628 17.6362 8.48877C17.5187 8.37126 17.3796 8.3125 17.2188 8.3125H16.625V13.0625H17.2188C17.3796 13.0625 17.5187 13.0037 17.6362 12.8862C17.7537 12.7687 17.8125 12.6296 17.8125 12.4688Z" fill="black"/>
</svg>
